<?xml version="1.0" encoding="utf-8"?>
<!-- Generator: Adobe Illustrator 22.0.0, SVG Export Plug-In . SVG Version: 6.00 Build 0)  -->
<svg version="1.1" id="Layer_1" xmlns="http://www.w3.org/2000/svg" xmlns:xlink="http://www.w3.org/1999/xlink" x="0px" y="0px"
	 viewBox="0 0 120 120" style="enable-background:new 0 0 120 120;" xml:space="preserve">
<style type="text/css">
	.st0{fill:#0476AF;}
	.st1{fill:#41C5F9;}
	.st2{fill:#F66133;}
	.st3{fill:#2B292A;}
	.st4{fill:#0394DD;}
	.st5{fill:#2D2D2D;}
	.st6{fill:#545252;}
	.st7{fill:#F7F2ED;}
	.st8{fill:#D8C5B8;}
	.st9{fill:#EF2C06;}
	.st10{fill:#F27D2F;}
	.st11{fill:#FFC100;}
</style>
<g>
	<g>
		<path class="st0" d="M76.6,86.1c0,0.8-0.7,1.4-1.5,1.4H10.9c-0.8,0-1.5-0.6-1.5-1.4V40.5c0-0.8,0.7-1.4,1.5-1.4h64.2
			c0.8,0,1.5,0.6,1.5,1.4V86.1z"/>
		<rect x="12" y="41.6" class="st1" width="62" height="39"/>
		<path class="st2" d="M44.3,84c0,0.7-0.5,1.2-1.2,1.2c-0.7,0-1.2-0.5-1.2-1.2c0-0.7,0.5-1.2,1.2-1.2C43.7,82.8,44.3,83.4,44.3,84z"
			/>
	</g>
	<path class="st0" d="M7,96.9v3.1c0,1.3,1.1,2.4,2.4,2.4h67.2c1.3,0,2.4-1.1,2.4-2.4v-3.1H7z"/>
	<g>
		<rect x="17.3" y="87.6" class="st3" width="6.2" height="1.5"/>
		<rect x="62.5" y="87.6" class="st3" width="6.2" height="1.5"/>
	</g>
	<polygon class="st4" points="71.5,89.2 14.5,89.2 7,96.9 79.1,96.9 	"/>
	<g>
		<rect x="70.5" y="91.9" class="st5" width="4.7" height="2.4"/>
		<path class="st5" d="M39.3,93.7c-0.3,0-0.6-0.3-0.6-0.6l0,0c0-0.3,0.3-0.6,0.6-0.6h3.3c0.3,0,0.6,0.3,0.6,0.6l0,0
			c0,0.3-0.3,0.6-0.6,0.6H39.3z"/>
		<path class="st6" d="M71.9,95.1H55.9V91h16.1c0.6,0,1.1,0.5,1.1,1.1V94C73.1,94.6,72.6,95.1,71.9,95.1z"/>
		<path class="st6" d="M45.3,91v4.1h-3.8c-0.6,0-1.1-0.5-1.1-1.1v-1.9c0-0.6,0.5-1.1,1.1-1.1H45.3z"/>
		<rect x="45.3" y="91" class="st5" width="10.5" height="4.1"/>
	</g>
	<g>
		<rect x="19" y="30.4" class="st7" width="43.5" height="50.2"/>
		<rect x="42.1" y="42.9" class="st8" width="16.2" height="1.7"/>
		<rect x="42.1" y="46.8" class="st8" width="16.2" height="1.7"/>
		<rect x="42.1" y="50.8" class="st8" width="16.2" height="1.7"/>
		<rect x="42.1" y="54.8" class="st8" width="16.2" height="1.7"/>
		<rect x="42.1" y="58.8" class="st8" width="16.2" height="1.7"/>
		<rect x="23.3" y="62.7" class="st8" width="35" height="1.7"/>
		<rect x="23.3" y="66.7" class="st8" width="35" height="1.7"/>
		<rect x="23.3" y="70.7" class="st8" width="35" height="1.7"/>
		<rect x="23.3" y="74.6" class="st8" width="35" height="1.7"/>
		<g>
			<rect x="19" y="30.4" class="st9" width="43.5" height="8.5"/>
			<g>
				<path class="st8" d="M25.2,34.6c0,0.8-0.7,1.5-1.5,1.5c-0.8,0-1.5-0.7-1.5-1.5c0-0.8,0.7-1.5,1.5-1.5
					C24.5,33.2,25.2,33.8,25.2,34.6z"/>
				<path class="st8" d="M30.3,34.6c0,0.8-0.7,1.5-1.5,1.5c-0.8,0-1.5-0.7-1.5-1.5c0-0.8,0.7-1.5,1.5-1.5
					C29.6,33.2,30.3,33.8,30.3,34.6z"/>
				<path class="st8" d="M35.4,34.6c0,0.8-0.7,1.5-1.5,1.5c-0.8,0-1.5-0.7-1.5-1.5c0-0.8,0.7-1.5,1.5-1.5
					C34.7,33.2,35.4,33.8,35.4,34.6z"/>
			</g>
		</g>
		<rect x="23.3" y="42.9" class="st10" width="10.3" height="16.8"/>
	</g>
	<g>
		<path class="st11" d="M108,17.7H67.7c-2.8,0-5,2.2-5,5v9.7L52.3,54.8l20.5-13.4H108c2.8,0,5-2.2,5-5V22.7
			C113,19.9,110.8,17.7,108,17.7z"/>
		<g>
			<rect x="76.7" y="23.2" class="st6" width="28" height="4.2"/>
			<rect x="76.7" y="31.6" class="st6" width="16.9" height="4.2"/>
		</g>
	</g>
</g>
</svg>
