<?xml version="1.0" encoding="utf-8"?>
<!-- Generator: Adobe Illustrator 22.0.0, SVG Export Plug-In . SVG Version: 6.00 Build 0)  -->
<svg version="1.1" id="Layer_1" xmlns="http://www.w3.org/2000/svg" xmlns:xlink="http://www.w3.org/1999/xlink" x="0px" y="0px"
	 viewBox="0 0 120 120" style="enable-background:new 0 0 120 120;" xml:space="preserve">
<style type="text/css">
	.st0{fill:#292B2D;}
	.st1{fill:#4C9B19;}
	.st2{fill:#6DD3F2;}
	.st3{fill:#E1E4E5;}
	.st4{fill:#5E6163;}
	.st5{fill:#474A4D;}
	.st6{fill:#3F3F3F;}
	.st7{fill:#95A2A5;}
	.st8{fill:#F9BD38;}
	.st9{fill:#D15415;}
	.st10{fill:#4DB6E0;}
</style>
<g>
	<rect x="7.3" y="91.7" class="st0" width="104.4" height="11.1"/>
	<path class="st1" d="M115,89c0,1.5-1.2,2.7-2.7,2.7H6.7C5.2,91.7,4,90.5,4,89v-4.5c0-1.5,1.2-2.7,2.7-2.7h105.6
		c1.5,0,2.7,1.2,2.7,2.7V89z"/>
	<path class="st2" d="M50.6,23.3H45c-3.5,0-3.3-5.1,0-5.1h5.6C54.1,18.2,53.9,23.3,50.6,23.3z"/>
	<path class="st2" d="M64.9,35.4h-5.6c-3.5,0-3.3-5.1,0-5.1h5.6C68.4,30.3,68.1,35.4,64.9,35.4z"/>
	<g>
		<rect x="7.9" y="38.2" class="st3" width="40" height="23.6"/>
		<g>
			<path class="st4" d="M49.5,61.9c0,0.6-0.5,1.1-1.1,1.1h-41c-0.6,0-1.1-0.5-1.1-1.1V37.6c0-0.6,0.5-1.1,1.1-1.1h41
				c0.6,0,1.1,0.5,1.1,1.1V61.9z"/>
			<rect x="9.1" y="39.3" class="st3" width="37.6" height="20.9"/>
			<rect x="23" y="63" class="st4" width="9.8" height="20.9"/>
			<g>
				<polygon class="st5" points="37.6,87.9 18.3,87.9 18.3,83.9 37.5,83.9 				"/>
			</g>
			<rect x="23" y="63" class="st6" width="9.8" height="2.3"/>
		</g>
		<g>
			<g>
				<g>
					<g>
						<path class="st7" d="M17.6,39H16v-3c0-1.6,1.3-2.8,2.8-2.8c1.6,0,2.8,1.3,2.8,2.8v0.5H20V36c0-0.7-0.5-1.2-1.2-1.2
							c-0.7,0-1.2,0.5-1.2,1.2V39z"/>
					</g>
				</g>
				<g>
					<path class="st8" d="M18.1,41c0,0.8-0.6,1.4-1.4,1.4c-0.8,0-1.4-0.6-1.4-1.4c0-0.8,0.6-1.4,1.4-1.4
						C17.5,39.7,18.1,40.3,18.1,41z"/>
					<path class="st1" d="M20.8,41v-1.5c0-0.7-0.6-1.3-1.3-1.3H14c-0.7,0-1.3,0.6-1.3,1.3V41H20.8z"/>
				</g>
			</g>
			<g>
				<g>
					<g>
						<path class="st7" d="M28.3,39h-1.6v-3c0-1.6,1.3-2.8,2.8-2.8c1.6,0,2.8,1.3,2.8,2.8v0.5h-1.6V36c0-0.7-0.5-1.2-1.2-1.2
							c-0.7,0-1.2,0.5-1.2,1.2V39z"/>
					</g>
				</g>
				<g>
					<path class="st8" d="M28.9,41c0,0.8-0.6,1.4-1.4,1.4c-0.8,0-1.4-0.6-1.4-1.4c0-0.8,0.6-1.4,1.4-1.4
						C28.3,39.7,28.9,40.3,28.9,41z"/>
					<path class="st1" d="M31.6,41v-1.5c0-0.7-0.6-1.3-1.3-1.3h-5.5c-0.7,0-1.3,0.6-1.3,1.3V41H31.6z"/>
				</g>
			</g>
			<g>
				<g>
					<g>
						<path class="st7" d="M39.1,39h-1.6v-3c0-1.6,1.3-2.8,2.8-2.8c1.6,0,2.8,1.3,2.8,2.8v0.5h-1.6V36c0-0.7-0.5-1.2-1.2-1.2
							c-0.7,0-1.2,0.5-1.2,1.2V39z"/>
					</g>
				</g>
				<g>
					<path class="st8" d="M39.6,41c0,0.8-0.6,1.4-1.4,1.4c-0.8,0-1.4-0.6-1.4-1.4c0-0.8,0.6-1.4,1.4-1.4C39,39.7,39.6,40.3,39.6,41z
						"/>
					<path class="st1" d="M42.3,41v-1.5c0-0.7-0.6-1.3-1.3-1.3h-5.5c-0.7,0-1.3,0.6-1.3,1.3V41H42.3z"/>
				</g>
			</g>
		</g>
	</g>
	<g>
		<rect x="40.3" y="67.4" class="st9" width="21.6" height="14.4"/>
		<rect x="42.3" y="71" class="st3" width="17.2" height="3.6"/>
		<rect x="42.3" y="75.8" class="st3" width="17.2" height="3.6"/>
	</g>
	<g>
		<rect x="61.9" y="51.1" class="st10" width="43.9" height="30.7"/>
		<rect x="67.3" y="56.2" class="st3" width="33.7" height="3.7"/>
		<rect x="67.3" y="62.1" class="st3" width="33.7" height="3.7"/>
		<rect x="67.3" y="68" class="st3" width="33.7" height="3.7"/>
		<rect x="67.3" y="73.8" class="st3" width="33.7" height="3.7"/>
	</g>
</g>
</svg>
