<?xml version="1.0" encoding="iso-8859-1"?>
<!-- Generator: Adobe Illustrator 19.0.0, SVG Export Plug-In . SVG Version: 6.00 Build 0)  -->
<svg version="1.1" id="Capa_1" xmlns="http://www.w3.org/2000/svg" xmlns:xlink="http://www.w3.org/1999/xlink" x="0px" y="0px"
	 viewBox="0 0 511.999 511.999" style="enable-background:new 0 0 511.999 511.999;" xml:space="preserve">
<g>
	<path style="fill:#FF4F4F;" d="M183.432,279.399c-19.236,0-34.885-15.649-34.885-34.884c0-19.235,15.649-34.886,34.885-34.886
		s34.885,15.65,34.885,34.885S202.667,279.399,183.432,279.399z"/>
	<path style="fill:#FF4F4F;" d="M118.587,342.228v-2.006c0-35.75,29.089-64.836,64.845-64.836c12.301,0,24.281,3.465,34.644,10.02
		l1.743,1.103l-1.151,1.712c-10.354,15.389-15.827,33.37-15.827,52v2.006H118.587z"/>
</g>
<g>
	<path style="fill:#44C973;" d="M198.828,342.228v-2.006c0-19.43,5.709-38.187,16.511-54.239
		c18.135-26.959,48.333-43.053,80.782-43.053c53.647,0,97.292,43.645,97.292,97.292v2.006H198.828z"/>
	<path style="fill:#44C973;" d="M296.121,246.942c-28.594,0-51.856-23.262-51.856-51.856s23.262-51.856,51.856-51.856
		c28.599,0,51.866,23.262,51.866,51.856S324.719,246.942,296.121,246.942z"/>
</g>
<path d="M110.563,340.222c0,5.539,4.49,10.03,10.03,10.03h80.241h190.573c5.539,0,10.03-4.491,10.03-10.03
	c0-44.896-28.242-83.313-67.89-98.439c13.681-10.984,22.464-27.831,22.464-46.698c0-33.018-26.867-59.88-59.89-59.88
	c-33.018,0-59.88,26.862-59.88,59.88c0,18.862,8.775,35.704,22.447,46.688c-15.017,5.707-28.621,14.815-39.7,26.736
	c4.64-6.854,7.353-15.113,7.353-23.996c0-23.66-19.249-42.909-42.909-42.909s-42.909,19.249-42.909,42.909
	c0,11.538,4.586,22.019,12.02,29.738C127.766,285.899,110.563,311.085,110.563,340.222z M256.301,195.086
	c0-21.957,17.864-39.82,39.82-39.82c21.962,0,39.83,17.864,39.83,39.82s-17.867,39.82-39.83,39.82
	C274.164,234.906,256.301,217.043,256.301,195.086z M296.121,254.966c43.619,0,79.692,32.923,84.67,75.226H211.448
	c1.568-13.379,6.269-26.152,13.824-37.408c0.036-0.052,0.071-0.104,0.106-0.158C241.278,269.043,267.716,254.966,296.121,254.966z
	 M160.583,244.514c0-12.6,10.25-22.849,22.849-22.849c12.599,0,22.849,10.25,22.849,22.849c0,12.599-10.25,22.848-22.849,22.848
	C170.833,267.362,160.583,257.113,160.583,244.514z M183.432,287.423c6.723,0,13.325,1.276,19.491,3.723
	c-6.4,12.123-10.333,25.349-11.628,39.046H131.58C136.277,305.857,157.741,287.423,183.432,287.423z"/>
<path d="M224.825,470.306C113.654,454.27,34.085,357.47,39.737,245.138C44.766,145.075,118.303,62.107,214.66,43.42l-5.649,7.471
	c-3.341,4.418-2.466,10.709,1.952,14.049c1.81,1.369,3.934,2.03,6.041,2.03c3.036,0,6.036-1.373,8.008-3.983l20.201-26.72
	c1.37-1.812,2.02-3.939,2.018-6.047c0-0.007,0.001-0.014,0.001-0.021c0-0.005-0.001-0.011-0.001-0.016
	c-0.001-0.31-0.017-0.618-0.047-0.926c-0.004-0.046-0.008-0.091-0.012-0.136c-0.029-0.263-0.07-0.524-0.12-0.784
	c-0.015-0.079-0.028-0.159-0.045-0.238c-0.048-0.223-0.107-0.443-0.171-0.663c-0.029-0.102-0.056-0.207-0.089-0.307
	c-0.063-0.198-0.138-0.39-0.214-0.584c-0.044-0.112-0.085-0.226-0.133-0.336c-0.078-0.181-0.168-0.357-0.258-0.534
	c-0.058-0.114-0.113-0.23-0.175-0.341c-0.091-0.164-0.193-0.324-0.294-0.483c-0.074-0.117-0.146-0.236-0.225-0.349
	c-0.096-0.139-0.202-0.273-0.306-0.408c-0.1-0.129-0.2-0.26-0.306-0.384c-0.09-0.104-0.186-0.206-0.28-0.308
	c-0.113-0.122-0.225-0.247-0.343-0.363c-0.006-0.006-0.011-0.013-0.018-0.019c-0.02-0.019-0.043-0.035-0.063-0.054
	c-0.002-0.001-0.003-0.003-0.005-0.004c-0.071-0.068-0.146-0.133-0.221-0.2c-0.185-0.167-0.374-0.327-0.571-0.479
	c-0.035-0.027-0.065-0.059-0.1-0.085l-26.7-20.171c-4.419-3.337-10.71-2.462-14.049,1.958c-3.339,4.419-2.463,10.71,1.957,14.049
	l7.309,5.522c-47.318,8.987-91.061,32.353-125.125,67.25c-40.264,41.248-64.032,95.701-66.929,153.326
	c-2.981,59.241,16.191,117.015,53.983,162.679c37.552,45.373,90.209,74.974,148.275,83.351c0.485,0.07,0.968,0.104,1.444,0.104
	c4.905,0,9.194-3.602,9.915-8.599C234.11,476.182,230.307,471.096,224.825,470.306z"/>
<path d="M440.264,123.765c-4.637,3.031-5.939,9.248-2.907,13.884c25.15,38.47,37.22,83.147,34.906,129.2
	c-5.036,100.07-78.579,183.049-174.933,201.732l5.65-7.474c3.34-4.419,2.465-10.709-1.953-14.05
	c-4.418-3.34-10.71-2.464-14.05,1.953l-20.191,26.71c-2.244,2.969-2.578,6.779-1.22,9.976c0.001,0.003,0.002,0.005,0.003,0.008
	c0.121,0.286,0.258,0.566,0.406,0.841c0.008,0.015,0.015,0.03,0.023,0.045c0.137,0.251,0.288,0.495,0.447,0.733
	c0.024,0.036,0.046,0.074,0.071,0.11c0.139,0.204,0.291,0.401,0.446,0.596c0.055,0.069,0.107,0.139,0.165,0.207
	c0.127,0.15,0.264,0.296,0.401,0.44c0.101,0.107,0.203,0.215,0.309,0.317c0.102,0.098,0.21,0.193,0.317,0.288
	c0.159,0.142,0.323,0.281,0.491,0.412c0.032,0.025,0.06,0.053,0.092,0.077c0.008,0.006,0.017,0.012,0.026,0.018
	c0.004,0.003,0.007,0.006,0.011,0.009l26.671,20.171c1.811,1.369,3.936,2.031,6.042,2.031c3.035,0,6.036-1.373,8.007-3.981
	c3.342-4.418,2.468-10.709-1.949-14.05l-7.305-5.525c47.319-8.988,91.061-32.357,125.124-67.256
	c40.26-41.247,64.029-95.702,66.93-153.332c2.529-50.319-10.663-99.14-38.15-141.184
	C451.116,122.035,444.902,120.732,440.264,123.765z"/>
<path d="M413.939,93.233c3.68-4.139,3.309-10.479-0.832-14.16c-34.167-30.379-76.057-50.073-121.141-56.952
	c-5.477-0.833-10.594,2.926-11.429,8.402s2.927,10.594,8.402,11.429c41.247,6.293,79.573,24.313,110.838,52.112
	c1.911,1.699,4.29,2.535,6.661,2.535C409.204,96.599,411.956,95.462,413.939,93.233z"/>
<path d="M426.847,118.355c12.908,0,12.929-20.06,0-20.06C413.939,98.295,413.918,118.355,426.847,118.355z"/>
<g>
</g>
<g>
</g>
<g>
</g>
<g>
</g>
<g>
</g>
<g>
</g>
<g>
</g>
<g>
</g>
<g>
</g>
<g>
</g>
<g>
</g>
<g>
</g>
<g>
</g>
<g>
</g>
<g>
</g>
</svg>
