<svg id="_x31__x2C_5" enable-background="new 0 0 36 36" height="512" viewBox="0 0 36 36" width="512" xmlns="http://www.w3.org/2000/svg"><path d="m8.377 31.833c6.917 0 11.667 3.583 15 3.583s10.333-1.916 10.333-17.249-9.417-17.584-13.083-17.584c-17.167 0-24.5 31.25-12.25 31.25z" fill="#efefef"/><g fill="#a4afc1"><path d="m6.033 3.467h2v1h-2z" transform="matrix(.707 -.707 .707 .707 -.745 6.135)"/><path d="m1.967 7.533h2v1h-2z" transform="matrix(.707 -.707 .707 .707 -4.811 4.451)"/><path d="m2.644 2.967h1v2h-1z" transform="matrix(.707 -.707 .707 .707 -1.884 3.385)"/></g><circle cx="18" cy="18" fill="#f3f3f1" r="11.25"/><circle cx="23" cy="23" fill="#2fdf84" r="4.25"/><path d="m21 23c0-1.955 1.328-3.585 3.125-4.08-.361-.099-.733-.17-1.125-.17-2.347 0-4.25 1.903-4.25 4.25s1.903 4.25 4.25 4.25c.392 0 .764-.07 1.125-.17-1.797-.495-3.125-2.125-3.125-4.08z" fill="#00b871"/><path d="m9 18c0-5.833 4.44-10.629 10.125-11.193-.37-.037-.745-.057-1.125-.057-6.213 0-11.25 5.037-11.25 11.25s5.037 11.25 11.25 11.25c.38 0 .755-.02 1.125-.057-5.685-.564-10.125-5.36-10.125-11.193z" fill="#d5dbe1"/><path d="m23 28c-2.757 0-5-2.243-5-5s2.243-5 5-5 5 2.243 5 5-2.243 5-5 5zm0-8.5c-1.93 0-3.5 1.57-3.5 3.5s1.57 3.5 3.5 3.5 3.5-1.57 3.5-3.5-1.57-3.5-3.5-3.5z"/><path d="m26.966 24.796h1.5v5.839h-1.5z" transform="matrix(.707 -.707 .707 .707 -11.48 27.716)"/><path d="m18 30c-6.617 0-12-5.383-12-12s5.383-12 12-12 12 5.383 12 12c0 .486-.025.92-.076 1.325l-1.488-.189c.043-.341.064-.713.064-1.136 0-5.79-4.71-10.5-10.5-10.5s-10.5 4.71-10.5 10.5 4.71 10.5 10.5 10.5z"/><path d="m18 30c-2.336 0-4.335-2.434-5.348-6.51-.426-1.685-.652-3.585-.652-5.49 0-1.912.226-3.805.652-5.493 1.013-4.073 3.012-6.507 5.348-6.507s4.335 2.434 5.348 6.51c.251.952.434 2.026.539 3.182l-1.494.137c-.098-1.073-.266-2.064-.498-2.946-.814-3.275-2.341-5.383-3.895-5.383s-3.081 2.108-3.893 5.371c-.397 1.573-.607 3.339-.607 5.109 0 1.803.21 3.575.607 5.146.812 3.266 2.339 5.374 3.893 5.374z"/><path d="m18 13.897c-3.511 0-6.833-.726-9.114-1.991l.729-1.313c2.064 1.146 5.121 1.804 8.386 1.804s6.321-.657 8.386-1.804l.729 1.313c-2.283 1.266-5.605 1.991-9.116 1.991z"/><path d="m17.25 6.75h1.5v11.23h-1.5z"/><path d="m6.77 17.23h11.23v1.5h-11.23z"/><path d="m9.613 25.406-.727-1.313c1.19-.659 2.651-1.17 4.342-1.519.801-.17 1.629-.292 2.458-.362l.127 1.494c-.768.065-1.534.179-2.278.336-1.524.315-2.879.787-3.922 1.364z"/></svg>