<?xml version="1.0" encoding="iso-8859-1"?>
<!-- Generator: Adobe Illustrator 19.0.0, SVG Export Plug-In . SVG Version: 6.00 Build 0)  -->
<svg version="1.1" id="Capa_1" xmlns="http://www.w3.org/2000/svg" xmlns:xlink="http://www.w3.org/1999/xlink" x="0px" y="0px"
	 viewBox="0 0 512 512" style="enable-background:new 0 0 512 512;" xml:space="preserve">
<g>
	<path style="fill:#46B29D;" d="M251.409,503.467C519.535,388.557,485.06,142.976,475.204,93.952
		c-0.467-2.273-1.844-4.255-3.811-5.485c-1.967-1.23-4.352-1.601-6.6-1.026C339.883,116.625,278.281,48.23,258.79,20.028
		c-1.587-2.348-4.236-3.755-7.07-3.755s-5.483,1.407-7.07,3.755c-19.558,28.203-81.365,96.623-206.302,67.413
		c-2.248-0.575-4.633-0.204-6.6,1.026s-3.344,3.212-3.811,5.485c-9.856,49.024-44.331,294.605,223.795,409.515H251.409z"/>
	<path style="fill:#FF5364;" d="M251.571,466.005C52.403,373.129,49.28,198.144,57.532,125.781
		c12.953,1.894,26.026,2.861,39.117,2.893c58.286,1.111,114.422-21.998,155.034-63.821c40.519,41.817,96.586,64.926,154.803,63.804
		c13.088-0.032,26.158-0.999,39.108-2.893C453.862,198.153,450.739,373.129,251.571,466.005z"/>
	<g>
		<path style="fill:#65DDB9;" d="M251.563,474.547c-1.241,0-2.467-0.271-3.593-0.794c-19.596-9.053-38.485-19.565-56.508-31.445
			c-2.639-1.642-4.177-4.588-4.015-7.692c0.162-3.104,2-5.874,4.796-7.231c2.796-1.357,6.109-1.086,8.648,0.707
			c16.2,10.673,33.133,20.191,50.671,28.484C436.42,368.478,445.269,208.785,438.298,135.33c-10.56,1.232-21.181,1.859-31.812,1.877
			c-4.713,0-8.533-3.821-8.533-8.533c0-4.713,3.821-8.533,8.533-8.533c12.763-0.034,25.508-0.984,38.135-2.842
			c2.275-0.329,4.586,0.273,6.41,1.671c1.825,1.397,3.008,3.472,3.284,5.753c8.798,72.96,6.98,253.013-199.142,349.013
			C254.044,474.27,252.811,474.546,251.563,474.547z"/>
		<path style="fill:#65DDB9;" d="M135.441,392.533c-2.377,0.002-4.647-0.988-6.263-2.731
			c-38.39-41.589-64.463-93.032-75.307-148.582c-7.674-38.317-9.315-77.597-4.864-116.42c0.262-2.291,1.441-4.378,3.267-5.786
			s4.144-2.017,6.427-1.689c12.566,1.841,25.248,2.782,37.948,2.816c55.914,1.238,109.821-20.852,148.787-60.971
			c3.413-3.328,8.857-3.328,12.271,0c22.623,23.564,50.786,41.09,81.92,50.978c2.956,0.885,5.204,3.296,5.879,6.307
			c0.675,3.011-0.327,6.151-2.622,8.214c-2.295,2.063-5.524,2.726-8.446,1.735c-31.043-9.84-59.402-26.7-82.876-49.271
			c-41.693,39.663-97.364,61.255-154.897,60.075c-10.551-0.019-21.092-0.637-31.573-1.852c-3.1,34.235-1.243,68.738,5.513,102.443
			c10.224,52.487,34.84,101.097,71.1,140.399c2.308,2.489,2.922,6.109,1.563,9.219C141.908,390.527,138.835,392.536,135.441,392.533
			z"/>
	</g>
	<g>
		<path style="fill:#46B29D;" d="M46.933,469.333c-4.713,0-8.533-3.82-8.533-8.533v-51.2c0-4.713,3.821-8.533,8.533-8.533
			s8.533,3.821,8.533,8.533v51.2C55.467,465.513,51.646,469.333,46.933,469.333z"/>
		<path style="fill:#46B29D;" d="M72.533,443.733h-51.2c-4.713,0-8.533-3.821-8.533-8.533s3.821-8.533,8.533-8.533h51.2
			c4.713,0,8.533,3.82,8.533,8.533S77.246,443.733,72.533,443.733z"/>
	</g>
	<g>
		<path style="fill:#F0C419;" d="M465.067,512c-4.713,0-8.533-3.82-8.533-8.533v-51.2c0-4.713,3.82-8.533,8.533-8.533
			s8.533,3.82,8.533,8.533v51.2C473.6,508.18,469.78,512,465.067,512z"/>
		<path style="fill:#F0C419;" d="M490.667,486.4h-51.2c-4.713,0-8.533-3.82-8.533-8.533s3.821-8.533,8.533-8.533h51.2
			c4.713,0,8.533,3.821,8.533,8.533S495.38,486.4,490.667,486.4z"/>
	</g>
	<g>
		<path style="fill:#FF5364;" d="M439.467,51.2c-4.713,0-8.533-3.821-8.533-8.533V8.533c0-4.713,3.821-8.533,8.533-8.533
			C444.18,0,448,3.821,448,8.533v34.133C448,47.379,444.18,51.2,439.467,51.2z"/>
		<path style="fill:#FF5364;" d="M456.533,34.133H422.4c-4.713,0-8.533-3.821-8.533-8.533s3.82-8.533,8.533-8.533h34.133
			c4.713,0,8.533,3.821,8.533,8.533S461.246,34.133,456.533,34.133z"/>
	</g>
	<path style="fill:#F9EAB0;" d="M311.467,247.467H192c-4.713,0-8.533-3.821-8.533-8.533V204.8c0-37.703,30.564-68.267,68.267-68.267
		S320,167.097,320,204.8v34.133c0,2.263-0.899,4.434-2.499,6.034C315.9,246.568,313.73,247.467,311.467,247.467z M200.533,230.4
		h102.4v-25.6c0-28.277-22.923-51.2-51.2-51.2s-51.2,22.923-51.2,51.2V230.4z"/>
	<path style="fill:#F0C419;" d="M174.933,230.4h153.6c4.713,0,8.533,3.821,8.533,8.533V332.8c0,28.277-22.923,51.2-51.2,51.2H217.6
		c-28.277,0-51.2-22.923-51.2-51.2v-93.867C166.4,234.221,170.221,230.4,174.933,230.4z"/>
	<g>
		<path style="fill:#E57E25;" d="M251.733,315.733c-14.139,0-25.6-11.462-25.6-25.6c0-14.138,11.462-25.6,25.6-25.6
			c14.138,0,25.6,11.462,25.6,25.6C277.333,304.272,265.872,315.733,251.733,315.733z M251.733,281.6
			c-4.713,0-8.533,3.821-8.533,8.533c0,4.713,3.821,8.533,8.533,8.533c4.713,0,8.533-3.821,8.533-8.533
			C260.267,285.421,256.446,281.6,251.733,281.6z"/>
		<path style="fill:#E57E25;" d="M251.733,341.333c-4.713,0-8.533-3.82-8.533-8.533v-25.6c0-4.713,3.821-8.533,8.533-8.533
			c4.713,0,8.533,3.82,8.533,8.533v25.6C260.267,337.513,256.446,341.333,251.733,341.333z"/>
		<path style="fill:#E57E25;" d="M192,273.067h-25.6c-4.713,0-8.533-3.82-8.533-8.533S161.687,256,166.4,256H192
			c4.713,0,8.533,3.821,8.533,8.533S196.713,273.067,192,273.067z"/>
		<path style="fill:#E57E25;" d="M192,307.2h-25.6c-4.713,0-8.533-3.82-8.533-8.533s3.821-8.533,8.533-8.533H192
			c4.713,0,8.533,3.82,8.533,8.533S196.713,307.2,192,307.2z"/>
		<path style="fill:#E57E25;" d="M192,341.333h-25.6c-4.713,0-8.533-3.82-8.533-8.533s3.821-8.533,8.533-8.533H192
			c4.713,0,8.533,3.82,8.533,8.533S196.713,341.333,192,341.333z"/>
		<path style="fill:#E57E25;" d="M337.067,273.067h-25.6c-4.713,0-8.533-3.82-8.533-8.533s3.82-8.533,8.533-8.533h25.6
			c4.713,0,8.533,3.821,8.533,8.533S341.78,273.067,337.067,273.067z"/>
		<path style="fill:#E57E25;" d="M337.067,307.2h-25.6c-4.713,0-8.533-3.82-8.533-8.533s3.82-8.533,8.533-8.533h25.6
			c4.713,0,8.533,3.82,8.533,8.533S341.78,307.2,337.067,307.2z"/>
		<path style="fill:#E57E25;" d="M337.067,341.333h-25.6c-4.713,0-8.533-3.82-8.533-8.533s3.82-8.533,8.533-8.533h25.6
			c4.713,0,8.533,3.82,8.533,8.533S341.78,341.333,337.067,341.333z"/>
	</g>
</g>
<g>
</g>
<g>
</g>
<g>
</g>
<g>
</g>
<g>
</g>
<g>
</g>
<g>
</g>
<g>
</g>
<g>
</g>
<g>
</g>
<g>
</g>
<g>
</g>
<g>
</g>
<g>
</g>
<g>
</g>
</svg>
