<svg height="512pt" viewBox="-45 0 512 512" width="512pt" xmlns="http://www.w3.org/2000/svg"><g fill="#d6effb"><path d="m94.769531 15.296875c.355469-.21875.710938-.433594 1.074219-.640625-.363281.207031-.71875.421875-1.074219.640625zm0 0"/><path d="m17.601562 99.898438c.140626-.183594.285157-.371094.429688-.554688-.148438.183594-.289062.371094-.429688.554688zm0 0"/><path d="m96.175781 14.476562c.40625-.222656.8125-.445312 1.230469-.65625-.417969.210938-.824219.433594-1.230469.65625zm0 0"/><path d="m87.960938 20.699219c.160156-.164063.328124-.320313.492187-.480469-.164063.160156-.332031.316406-.492187.480469zm0 0"/><path d="m15.605469 102.726562c.195312-.304687.390625-.613281.59375-.910156-.203125.296875-.398438.605469-.59375.910156zm0 0"/><path d="m16.539062 101.328125c.179688-.253906.355469-.507813.542969-.757813-.1875.25-.363281.503907-.542969.757813zm0 0"/><path d="m93.351562 16.210938c.316407-.214844.636719-.425782.957032-.632813-.320313.207031-.640625.417969-.957032.632813zm0 0"/><path d="m12.703125 108.320312c.183594-.449218.378906-.894531.582031-1.335937-.203125.441406-.398437.886719-.582031 1.335937zm0 0"/><path d="m91.953125 17.210938c.28125-.210938.566406-.417969.855469-.621094-.289063.199218-.574219.40625-.855469.621094zm0 0"/><path d="m90.582031 18.292969c.25-.207031.5-.40625.753907-.605469-.253907.199219-.503907.398438-.753907.605469zm0 0"/><path d="m89.25 19.453125c.210938-.191406.425781-.378906.640625-.566406-.210937.1875-.429687.375-.640625.566406zm0 0"/><path d="m14.003906 105.515625c.199219-.386719.402344-.773437.617188-1.152344-.214844.382813-.417969.765625-.617188 1.152344zm0 0"/><path d="m86.734375 22.007812-.011719.011719-67.671875 76.128907 67.671875-76.128907zm0 0"/><path d="m13.316406 106.917969c.195313-.421875.398438-.839844.609375-1.253907-.210937.414063-.414062.832032-.609375 1.253907zm0 0"/><path d="m329.496094 335.839844c4.675781 0 9.257812.40625 13.722656 1.148437v-286.714843c0-22.242188-18.03125-40.273438-40.273438-40.273438h-189.457031c-5.648437 0-11.144531 1.339844-16.082031 3.820312v78.496094c0 8.839844-7.164062 16.007813-16.003906 16.007813h-68.699219c-1.761719 4.285156-2.699219 8.90625-2.699219 13.613281v310.824219c0 22.242187 18.027344 40.273437 40.269532 40.273437h216.214843c-12.5-14.539062-20.070312-33.4375-20.070312-54.117187 0-45.882813 37.195312-83.078125 83.078125-83.078125zm0 0"/><path d="m14.761719 104.121094c.199219-.351563.40625-.695313.617187-1.039063-.214844.34375-.414062.6875-.617187 1.039063zm0 0"/></g><path d="m97.40625 92.316406v-78.496094c-.417969.210938-.824219.433594-1.230469.65625-.113281.0625-.222656.121094-.332031.183594-.363281.203125-.71875.417969-1.074219.636719-.152343.09375-.308593.1875-.460937.28125-.324219.207031-.640625.417969-.957032.632813-.183593.125-.363281.25-.542968.378906-.289063.199218-.574219.410156-.855469.621094-.207031.15625-.414063.316406-.617187.476562-.253907.199219-.503907.398438-.753907.605469-.234375.195312-.460937.394531-.691406.59375-.214844.1875-.429687.375-.640625.570312-.269531.246094-.535156.507813-.796875.761719-.164063.160156-.332031.316406-.492187.480469-.417969.425781-.828126.859375-1.226563 1.308593-.003906.003907-.007813.007813-.011719.011719l-67.671875 76.128907c-.351562.390624-.6875.792968-1.019531 1.199218-.144531.179688-.289062.367188-.429688.554688-.175781.222656-.351562.441406-.519531.667968-.183593.25-.363281.503907-.539062.757813-.113281.164063-.230469.324219-.34375.488281-.203125.300782-.398438.605469-.59375.910156-.074219.117188-.152344.234376-.226563.355469-.210937.34375-.417968.6875-.617187 1.039063-.046875.082031-.09375.160156-.140625.242187-.214844.378907-.417969.765625-.617188 1.152344-.027344.050781-.054687.097656-.078125.148437-.210937.414063-.414062.832032-.609375 1.253907-.007812.023437-.019531.042969-.03125.066406-.203125.441406-.394531.886719-.582031 1.335937v.003907h68.699219c8.839844 0 16.003906-7.167969 16.003906-16.007813zm0 0" fill="#86a4b3"/><path d="m343.21875 336.988281c-4.464844-.742187-9.046875-1.148437-13.722656-1.148437-45.882813 0-83.078125 37.195312-83.078125 83.082031 0 20.675781 7.570312 39.574219 20.070312 54.113281 15.238281 17.726563 37.800781 28.964844 63.007813 28.964844 45.886718 0 83.082031-37.195312 83.082031-83.078125 0-41.210937-30.007813-75.390625-69.359375-81.933594zm0 0" fill="#ee569e"/><path d="m400.253906 358.445312c-12.367187-14.457031-28.84375-24.746093-47.035156-29.53125v-278.644531c0-27.71875-22.554688-50.269531-50.277344-50.269531h-189.453125c-7.183593 0-14.183593 1.699219-20.480469 4.847656-.03125.015625-.0625.023438-.09375.039063s-.066406.039062-.101562.054687c-.386719.195313-.769531.40625-1.152344.613282-.292968.160156-.589844.316406-.878906.480468-.339844.195313-.679688.398438-1.015625.605469-.332031.199219-.660156.398437-.984375.605469-.296875.191406-.589844.386718-.882812.585937-.359376.238281-.714844.484375-1.0625.734375-.265626.1875-.523438.378906-.785157.570313-.367187.277343-.734375.558593-1.09375.847656-.238281.191406-.476562.378906-.710937.574219-.367188.304687-.730469.621094-1.089844.9375-.21875.195312-.441406.386718-.660156.585937-.363282.332031-.714844.679688-1.066406 1.023438-.203126.199219-.414063.394531-.613282.597656-.421875.429687-.832031.871094-1.238281 1.320313-.109375.121093-.222656.234374-.332031.355468l-27.066406 30.445313-40.605469 45.679687c-.453125.507813-.890625 1.027344-1.320313 1.558594-.109375.136719-.214844.277344-.324218.414062-.296876.378907-.59375.753907-.878907 1.136719-.203125.273438-.398437.554688-.59375.832031-.179687.25-.359375.496094-.53125.75-.246093.363282-.484375.730469-.71875 1.101563-.105469.167969-.214843.332031-.316406.496094-.277344.441406-.539063.890625-.796875 1.34375-.054688.089843-.105469.179687-.15625.269531-.296875.519531-.578125 1.042969-.851562 1.574219-.007813.015625-.015626.03125-.023438.046875-3.296875 6.417968-5.0625 13.570312-5.0625 20.910156v310.820312c0 27.726563 22.554688 50.28125 50.28125 50.28125h211.765625c17.53125 18.460938 41.855469 28.960938 67.453125 28.960938 51.324219 0 93.078125-41.753906 93.078125-93.078125 0-22.175781-7.925781-43.652344-22.324219-60.476563zm-312.847656-322.144531v56.015625c0 3.3125-2.691406 6.007813-6.003906 6.007813h-49.128906l32.898437-37.011719zm-37.125 426.738281c-16.699219 0-30.28125-13.582031-30.28125-30.277343v-310.820313c0-1.21875.113281-2.425781.28125-3.617187h61.121094c14.339844 0 26.003906-11.667969 26.003906-26.007813v-71.578125c1.976562-.480469 4.015625-.738281 6.082031-.738281h189.453125c16.695313 0 30.277344 13.578125 30.277344 30.269531v275.644531c-1.238281-.046874-2.480469-.074218-3.71875-.074218-51.324219 0-93.082031 41.757812-93.082031 93.082031 0 1.238281.035156 2.472656.085937 3.707031.011719.335938.027344.667969.046875 1 .050781 1.046875.121094 2.089844.207031 3.128906.019532.207032.03125.410157.050782.617188.109375 1.214844.246094 2.421875.40625 3.625.039062.308594.085937.617188.128906.925781.136719.96875.289062 1.941407.457031 2.90625.050781.289063.097657.582031.148438.871094.21875 1.1875.457031 2.367187.722656 3.542969.054687.253906.117187.5.175781.753906.222656.964844.464844 1.921875.71875 2.878906.085938.328125.171875.652344.261719.980469.324219 1.15625.664063 2.3125 1.03125 3.457031.039063.128906.085937.25.125.378906.335937 1.035157.695313 2.0625 1.066406 3.085938.121094.332031.246094.664062.371094.992188.367187.976562.75 1.945312 1.148437 2.90625.074219.171874.140626.34375.210938.515624.464844 1.101563.957031 2.1875 1.464844 3.269532.144531.308594.292968.617187.445312.925781.417969.867187.847656 1.722656 1.292969 2.578125.132813.257812.261719.515625.402344.773438.050781.097656.101562.199218.15625.300781h-197.261719zm279.21875 28.960938c-21.332031 0-41.535156-9.285156-55.441406-25.480469-11.375-13.222656-17.636719-30.125-17.636719-47.597656 0-40.296875 32.78125-73.082031 73.078125-73.082031 4.050781 0 8.109375.335937 12.082031 1.003906 35.34375 5.867188 60.996094 36.179688 60.996094 72.078125 0 40.292969-32.78125 73.078125-73.078125 73.078125zm0 0"/><path d="m100.835938 173.203125h158.539062c5.523438 0 10-4.476563 10-10s-4.476562-10-10-10h-158.539062c-5.523438 0-10 4.476563-10 10s4.476562 10 10 10zm0 0"/><path d="m100.835938 246.753906h158.539062c5.523438 0 10-4.476562 10-10 0-5.523437-4.476562-10-10-10h-158.539062c-5.523438 0-10 4.476563-10 10 0 5.523438 4.476562 10 10 10zm0 0"/><path d="m259.375 300.308594h-118.511719c-5.523437 0-10 4.476562-10 10 0 5.519531 4.476563 10 10 10h118.511719c5.523438 0 10-4.480469 10-10 0-5.523438-4.476562-10-10-10zm0 0"/><path d="m100.835938 300.308594c-5.523438 0-9.988282 4.476562-9.988282 10 0 5.519531 4.492188 10 10.015625 10 5.523438 0 10-4.480469 10-10 0-5.523438-4.476562-10-10-10zm0 0"/><path d="m215.167969 373.859375h-114.332031c-5.523438 0-10 4.476563-10 10s4.476562 10 10 10h114.332031c5.519531 0 10-4.476563 10-10s-4.480469-10-10-10zm0 0"/><path d="m364.144531 384.273438c-3.90625-3.90625-10.234375-3.90625-14.140625 0l-20.507812 20.503906-20.507813-20.503906c-3.902343-3.90625-10.234375-3.90625-14.140625 0-3.90625 3.902343-3.90625 10.234374 0 14.140624l20.503906 20.507813-20.503906 20.503906c-3.90625 3.90625-3.90625 10.238281 0 14.144531 1.953125 1.953126 4.511719 2.929688 7.070313 2.929688 2.558593 0 5.117187-.976562 7.070312-2.929688l20.507813-20.507812 20.503906 20.507812c1.953125 1.953126 4.511719 2.929688 7.070312 2.929688 2.5625 0 5.121094-.976562 7.074219-2.929688 3.902344-3.90625 3.902344-10.238281 0-14.144531l-20.503906-20.503906 20.503906-20.507813c3.90625-3.90625 3.90625-10.238281 0-14.140624zm0 0"/></svg>