<svg width="402" height="203" viewBox="0 0 402 203" fill="none" xmlns="http://www.w3.org/2000/svg">
<path d="M224.555 42.2371C224.555 44.2384 222.933 45.8608 220.931 45.8608C218.93 45.8608 217.308 44.2384 217.308 42.2371C217.308 40.2358 218.93 38.6134 220.931 38.6134C222.933 38.6134 224.555 40.2358 224.555 42.2371Z" stroke="#B8E4D7"/>
<rect x="104.093" y="26.8527" width="86.7842" height="116.445" rx="3" transform="rotate(-14.5 104.093 26.8527)" fill="white" fill-opacity="0.5"/>
<rect x="104.397" y="27.0322" width="86.2842" height="115.945" rx="2.75" transform="rotate(-14.5 104.397 27.0322)" stroke="#CACACA" stroke-opacity="0.5" stroke-width="0.5"/>
<rect x="114.6" y="41.1556" width="73.6018" height="93.3754" rx="3" transform="rotate(-14.5 114.6 41.1556)" fill="white" fill-opacity="0.5"/>
<rect x="114.905" y="41.3351" width="73.1018" height="92.8754" rx="2.75" transform="rotate(-14.5 114.905 41.3351)" stroke="#CACACA" stroke-opacity="0.5" stroke-width="0.5"/>
<circle cx="147.587" cy="56.9805" r="3.30664" transform="rotate(-14.5 147.587 56.9805)" stroke="#CACACA" stroke-opacity="0.5"/>
<circle cx="163.62" cy="53.1627" r="3.30664" transform="rotate(-14.5 163.62 53.1627)" stroke="#CACACA" stroke-opacity="0.5"/>
<path d="M149.043 73.4249C151.758 69.2977 159.813 62.4195 170.314 67.9239" stroke="#CACACA" stroke-opacity="0.5" stroke-linecap="round"/>
<rect x="233.933" y="16.1203" width="86.7842" height="116.445" rx="3" transform="rotate(27 233.933 16.1203)" fill="white" fill-opacity="0.5"/>
<rect x="234.043" y="16.4565" width="86.2842" height="115.945" rx="2.75" transform="rotate(27 234.043 16.4565)" stroke="#CACACA" stroke-opacity="0.5" stroke-width="0.5"/>
<circle cx="246.546" cy="67.5049" r="3.30664" transform="rotate(27 246.546 67.5049)" stroke="#CACACA" stroke-opacity="0.5"/>
<circle cx="261.083" cy="75.2692" r="3.30664" transform="rotate(27 261.083 75.2692)" stroke="#CACACA" stroke-opacity="0.5"/>
<path d="M236.739 80.7855C241.507 79.4934 252.098 79.6794 256.315 90.76" stroke="#CACACA" stroke-opacity="0.5" stroke-linecap="round"/>
<rect x="238.166" y="28.8277" width="86.2842" height="115.945" rx="2.75" transform="rotate(27 238.166 28.8277)" fill="white" stroke="#CACACA" stroke-width="0.5"/>
<rect x="236.558" y="46.502" width="73.1018" height="92.8754" rx="2.75" transform="rotate(27 236.558 46.502)" fill="white" stroke="#CACACA" stroke-width="0.5"/>
<rect x="296.079" y="64.1141" width="4.78145" height="4.78145" rx="0.75" transform="rotate(27 296.079 64.1141)" stroke="#CACACA" stroke-width="0.5"/>
<path d="M287.205 62.699L291.91 65.0967" stroke="#CACACA" stroke-width="0.5" stroke-linecap="round"/>
<path d="M304.714 69.3511L306.34 74.3543" stroke="#CACACA" stroke-width="0.5" stroke-linecap="round"/>
<path d="M307.833 70.9405L302.83 72.5662" stroke="#CACACA" stroke-width="0.5" stroke-linecap="round"/>
<circle cx="250.669" cy="79.876" r="3.30664" transform="rotate(27 250.669 79.876)" stroke="#CACACA"/>
<circle cx="265.207" cy="87.6403" r="3.30664" transform="rotate(27 265.207 87.6403)" stroke="#CACACA"/>
<path d="M240.863 93.1567C245.631 91.8646 256.222 92.0505 260.439 103.131" stroke="#CACACA" stroke-linecap="round"/>
<rect x="101.002" y="37.4873" width="86.2842" height="115.945" rx="2.75" transform="rotate(-14.5 101.002 37.4873)" fill="white" stroke="#CACACA" stroke-width="0.5"/>
<rect x="111.509" y="51.7903" width="73.1018" height="92.8754" rx="2.75" transform="rotate(-14.5 111.509 51.7903)" fill="white" stroke="#CACACA" stroke-width="0.5"/>
<rect x="167.758" y="25.5412" width="4.78145" height="4.78145" rx="0.75" transform="rotate(-14.5 167.758 25.5412)" stroke="#CACACA" stroke-width="0.5"/>
<path d="M160.173 30.3616L165.287 29.0393" stroke="#CACACA" stroke-width="0.5" stroke-linecap="round"/>
<path d="M177.695 23.7419L182.228 26.4119" stroke="#CACACA" stroke-width="0.5" stroke-linecap="round"/>
<path d="M181.085 22.8653L178.415 27.3981" stroke="#CACACA" stroke-width="0.5" stroke-linecap="round"/>
<circle cx="144.192" cy="67.4357" r="3.30664" transform="rotate(-14.5 144.192 67.4357)" stroke="#CACACA"/>
<circle cx="160.224" cy="63.6179" r="3.30664" transform="rotate(-14.5 160.224 63.6179)" stroke="#CACACA"/>
<path d="M145.647 83.8801C148.362 79.7529 156.417 72.8747 166.918 78.379" stroke="#CACACA" stroke-linecap="round"/>
<mask id="path-32-inside-1" fill="white">
<path fill-rule="evenodd" clip-rule="evenodd" d="M200.313 95.7216C200.313 93.5125 198.522 91.7216 196.313 91.7216H132.835C130.626 91.7216 128.835 93.5125 128.835 95.7217V113.715C128.835 113.715 128.835 113.715 128.835 113.715V113.715C128.835 113.715 128.835 113.715 128.835 113.715V197.687C128.835 199.896 130.626 201.687 132.835 201.687H267.79C270 201.687 271.79 199.896 271.79 197.687V117.715C271.79 115.506 270 113.715 267.79 113.715H204.313C202.104 113.715 200.313 111.924 200.313 109.715V95.7216Z"/>
</mask>
<path fill-rule="evenodd" clip-rule="evenodd" d="M200.313 95.7216C200.313 93.5125 198.522 91.7216 196.313 91.7216H132.835C130.626 91.7216 128.835 93.5125 128.835 95.7217V113.715C128.835 113.715 128.835 113.715 128.835 113.715V113.715C128.835 113.715 128.835 113.715 128.835 113.715V197.687C128.835 199.896 130.626 201.687 132.835 201.687H267.79C270 201.687 271.79 199.896 271.79 197.687V117.715C271.79 115.506 270 113.715 267.79 113.715H204.313C202.104 113.715 200.313 111.924 200.313 109.715V95.7216Z" fill="white"/>
<path d="M132.835 93.7216H196.313V89.7216H132.835V93.7216ZM130.835 113.715V95.7217H126.835V113.715H130.835ZM130.835 197.687V113.715H126.835V197.687H130.835ZM267.79 199.687H132.835V203.687H267.79V199.687ZM269.79 117.715V197.687H273.79V117.715H269.79ZM204.313 115.715H267.79V111.715H204.313V115.715ZM198.313 95.7216V109.715H202.313V95.7216H198.313ZM204.313 111.715C203.208 111.715 202.313 110.819 202.313 109.715H198.313C198.313 113.028 200.999 115.715 204.313 115.715V111.715ZM273.79 117.715C273.79 114.401 271.104 111.715 267.79 111.715V115.715C268.895 115.715 269.79 116.61 269.79 117.715H273.79ZM267.79 203.687C271.104 203.687 273.79 201.001 273.79 197.687H269.79C269.79 198.792 268.895 199.687 267.79 199.687V203.687ZM126.835 197.687C126.835 201.001 129.521 203.687 132.835 203.687V199.687C131.731 199.687 130.835 198.792 130.835 197.687H126.835ZM128.835 111.715C127.731 111.715 126.835 112.61 126.835 113.715H130.835C130.835 114.819 129.94 115.715 128.835 115.715V111.715ZM126.835 113.715C126.835 112.61 127.731 111.715 128.835 111.715V115.715C129.94 115.715 130.835 114.819 130.835 113.715H126.835ZM196.313 93.7216C197.417 93.7216 198.313 94.6171 198.313 95.7216H202.313C202.313 92.4079 199.626 89.7216 196.313 89.7216V93.7216ZM132.835 89.7216C129.521 89.7216 126.835 92.4079 126.835 95.7217H130.835C130.835 94.6171 131.731 93.7216 132.835 93.7216V89.7216Z" fill="#383838" mask="url(#path-32-inside-1)"/>
<path d="M1 201.687H43.6117" stroke="#383838" stroke-width="2" stroke-linecap="round"/>
<path d="M73.8523 201.687H401" stroke="#383838" stroke-width="2" stroke-linecap="round"/>
<path d="M49.11 201.687H64.2303" stroke="#383838" stroke-width="2" stroke-linecap="round"/>
<path d="M104.967 175.57C104.967 177.572 103.345 179.194 101.344 179.194C99.3424 179.194 97.72 177.572 97.72 175.57C97.72 173.569 99.3424 171.947 101.344 171.947C103.345 171.947 104.967 173.569 104.967 175.57Z" stroke="#B8E4D7"/>
<path d="M302.906 139.832C302.906 141.833 301.283 143.455 299.282 143.455C297.28 143.455 295.658 141.833 295.658 139.832C295.658 137.83 297.28 136.208 299.282 136.208C301.283 136.208 302.906 137.83 302.906 139.832Z" stroke="#B8E4D7"/>
<path d="M93.5056 87.5408L99.2261 90.9105" stroke="#BDBDBD" stroke-linecap="round"/>
<path d="M97.7832 86.4345L94.4136 92.1551" stroke="#BDBDBD" stroke-linecap="round"/>
<path d="M126.086 4.12431L132.725 4.12431" stroke="#8FBCFF" stroke-linecap="round"/>
<path d="M129.21 1.00008L129.21 7.63925" stroke="#8FBCFF" stroke-linecap="round"/>
<path d="M315.777 83.8494H322.416" stroke="#8FBCFF" stroke-linecap="round"/>
<path d="M318.901 80.7252L318.901 87.3643" stroke="#8FBCFF" stroke-linecap="round"/>
<path d="M281.822 179.637L287.542 183.007" stroke="#BDBDBD" stroke-linecap="round"/>
<path d="M286.099 178.531L282.73 184.251" stroke="#BDBDBD" stroke-linecap="round"/>
<path fill-rule="evenodd" clip-rule="evenodd" d="M287.649 29.4176C287.093 29.9286 286.351 30.2406 285.536 30.2406C283.811 30.2406 282.412 28.842 282.412 27.1168C282.412 25.3917 283.811 23.9931 285.536 23.9931C287.261 23.9931 288.66 25.3917 288.66 27.1168C288.66 27.7516 288.47 28.342 288.145 28.8349C288.002 28.8341 287.859 28.8949 287.759 29.0136C287.661 29.1302 287.626 29.2783 287.649 29.4176ZM288.333 30.1475C287.598 30.826 286.615 31.2406 285.536 31.2406C283.259 31.2406 281.412 29.3943 281.412 27.1168C281.412 24.8394 283.259 22.9931 285.536 22.9931C287.814 22.9931 289.66 24.8394 289.66 27.1168C289.66 27.955 289.41 28.7347 288.98 29.3855L291.405 31.4201C291.617 31.5976 291.644 31.913 291.467 32.1245C291.289 32.3361 290.974 32.3637 290.762 32.1862L288.333 30.1475Z" fill="#FF0606" fill-opacity="0.3"/>
<path fill-rule="evenodd" clip-rule="evenodd" d="M110.329 144.881C109.773 145.393 109.031 145.704 108.216 145.704C106.491 145.704 105.093 144.306 105.093 142.581C105.093 140.856 106.491 139.457 108.216 139.457C109.942 139.457 111.34 140.856 111.34 142.581C111.34 143.215 111.151 143.806 110.826 144.299C110.682 144.298 110.539 144.359 110.439 144.477C110.342 144.594 110.306 144.742 110.329 144.881ZM111.013 145.611C110.278 146.29 109.296 146.704 108.216 146.704C105.939 146.704 104.093 144.858 104.093 142.581C104.093 140.303 105.939 138.457 108.216 138.457C110.494 138.457 112.34 140.303 112.34 142.581C112.34 143.419 112.09 144.199 111.661 144.849L114.085 146.884C114.297 147.062 114.325 147.377 114.147 147.588C113.97 147.8 113.654 147.828 113.443 147.65L111.013 145.611Z" fill="#FF0606" fill-opacity="0.3"/>
</svg>
