<?xml version="1.0" encoding="utf-8"?>
<!-- Generator: Adobe Illustrator 22.0.0, SVG Export Plug-In . SVG Version: 6.00 Build 0)  -->
<svg version="1.1" id="Layer_1" xmlns="http://www.w3.org/2000/svg" xmlns:xlink="http://www.w3.org/1999/xlink" x="0px" y="0px"
	 viewBox="0 0 120 120" style="enable-background:new 0 0 120 120;" xml:space="preserve">
<style type="text/css">
	.st0{fill:#F27D2F;}
	.st1{fill:#FFFFFF;}
	.st2{fill:#BFDEE0;}
	.st3{fill:#AECDCE;}
	.st4{fill:#333333;}
	.st5{fill:#F7F2ED;}
	.st6{fill:#686868;}
	.st7{fill:#FF523B;}
	.st8{fill:#FFCA07;}
	.st9{fill:#FFCB57;}
	.st10{fill:#F77C0D;}
	.st11{fill:#F2B946;}
</style>
<g>
	<ellipse transform="matrix(0.9239 -0.3827 0.3827 0.9239 -20.0086 27.8494)" class="st0" cx="60" cy="64.2" rx="47.8" ry="47.8"/>
	<g>
		<polygon class="st1" points="44.2,26.2 88.2,70.3 56.9,101.6 19.5,64.3 19.5,50.9 		"/>
		
			<rect x="35" y="62.8" transform="matrix(0.7071 -0.7071 0.7071 0.7071 -30.4289 54.5158)" class="st2" width="31.2" height="2.4"/>
		
			<rect x="38.6" y="66.4" transform="matrix(0.7071 -0.7071 0.7071 0.7071 -31.9094 58.0891)" class="st2" width="31.2" height="2.4"/>
		
			<rect x="42.2" y="69.9" transform="matrix(0.7071 -0.7071 0.7071 0.7071 -33.3902 61.6646)" class="st2" width="31.2" height="2.4"/>
		
			<rect x="45.7" y="73.5" transform="matrix(0.7071 -0.7071 0.7071 0.7071 -34.8708 65.2387)" class="st2" width="31.2" height="2.4"/>
		
			<rect x="49.3" y="77.1" transform="matrix(0.7071 -0.7071 0.7071 0.7071 -36.3517 68.8144)" class="st2" width="31.2" height="2.4"/>
		<polygon class="st3" points="19.5,50.9 26.2,57.6 19.5,64.3 		"/>
	</g>
	<g>
		<path class="st4" d="M70.3,97c-1,0.4-2-0.1-2.4-1.1L51.9,53c-0.4-1,0.1-2,1.1-2.4l27.5-10.3c1-0.4,2,0.1,2.4,1.1l16,42.9
			c0.4,1-0.1,2-1.1,2.4L70.3,97z"/>
		
			<rect x="62" y="47.9" transform="matrix(0.9366 -0.3503 0.3503 0.9366 -19.0636 30.6442)" class="st5" width="26.4" height="40.3"/>
		<path class="st6" d="M83.7,90.7c-0.8,0.3-1.6-0.1-1.9-0.9c-0.3-0.8,0.1-1.6,0.9-1.9c0.8-0.3,1.6,0.1,1.9,0.9
			C84.8,89.6,84.4,90.5,83.7,90.7z"/>
	</g>
	<g>
		<path class="st7" d="M31.7,74.8c-0.3,0.8-1.2,1.1-2,0.8l-1.4-0.5c-0.8-0.3-1.2-1.2-0.9-1.9l2.1-5.4c0.3-0.8,1.2-1.1,2-0.8l1.4,0.5
			c0.8,0.3,1.2,1.2,0.9,1.9L31.7,74.8z"/>
		<g>
			<polygon class="st8" points="42.1,40.9 32.4,66.4 30.3,65.6 40.3,39.4 40.6,40.3 41.7,40 			"/>
			<polygon class="st9" points="43.5,37.4 42.1,40.9 41.7,40 40.6,40.4 40.3,39.4 42.8,37.2 			"/>
			<polygon class="st4" points="44,36 42.8,37.2 44.2,37.7 			"/>
			<polygon class="st10" points="44.5,41.1 34.6,67.2 32.4,66.4 42.1,40.9 43.1,40.5 43.6,41.5 			"/>
			<polygon class="st11" points="44.5,41.1 43.6,41.5 43.1,40.5 42.1,40.9 43.5,37.4 44.2,37.7 			"/>
		</g>
		
			<rect x="29.2" y="66.4" transform="matrix(0.3561 -0.9344 0.9344 0.3561 -43.7993 73.6966)" class="st6" width="4.8" height="4.6"/>
	</g>
</g>
</svg>
