<svg width="402" height="170" viewBox="0 0 402 170" fill="none" xmlns="http://www.w3.org/2000/svg">
<path d="M287 153V153.857C287 156.686 284.75 159 282 159C284.75 159 287 161.314 287 164.143V165V164.143C287 161.314 289.25 159 292 159C289.25 159 287 156.686 287 153.857V153Z" fill="#F4C167"/>
<path d="M271.1 151.637L276.821 155.007" stroke="#BDBDBD" stroke-linecap="round"/>
<path d="M275.378 150.531L272.008 156.251" stroke="#BDBDBD" stroke-linecap="round"/>
<path d="M1 168H43.6117" stroke="#383838" stroke-width="2" stroke-linecap="round"/>
<path d="M73.8523 168H401" stroke="#383838" stroke-width="2" stroke-linecap="round"/>
<path d="M49.1099 168H64.2301" stroke="#383838" stroke-width="2" stroke-linecap="round"/>
<rect x="131" y="47" width="140.96" height="121.256" rx="3" fill="white" stroke="#383838" stroke-width="2"/>
<circle cx="184.583" cy="129.583" r="2.58313" fill="#CACACA" stroke="#CACACA" stroke-width="2"/>
<circle cx="217.583" cy="129.583" r="2.58313" fill="#CACACA" stroke="#CACACA" stroke-width="2"/>
<path d="M212 149.166C208.553 152.287 199.592 156.657 191.319 149.166" stroke="#CACACA" stroke-width="2" stroke-linecap="round"/>
<rect x="131" y="47" width="141" height="54" rx="3" fill="#383838" stroke="#383838" stroke-width="2"/>
<rect x="142.996" y="63" width="55.3394" height="3.3539" rx="1.67695" fill="#F9FAFB"/>
<rect x="142.996" y="72.6426" width="38.5699" height="3.3539" rx="1.67695" fill="#DFE2E8"/>
<rect x="142.996" y="82.2849" width="23.0581" height="3.3539" rx="1.67695" fill="#B3D8FE"/>
<path d="M201.747 4.12371C201.747 6.12503 200.125 7.74742 198.124 7.74742C196.122 7.74742 194.5 6.12503 194.5 4.12371C194.5 2.12239 196.122 0.5 198.124 0.5C200.125 0.5 201.747 2.12239 201.747 4.12371Z" stroke="#B8E4D7"/>
<path d="M94.2457 147.57C94.2457 149.572 92.6233 151.194 90.622 151.194C88.6207 151.194 86.9983 149.572 86.9983 147.57C86.9983 145.569 88.6207 143.947 90.622 143.947C92.6233 143.947 94.2457 145.569 94.2457 147.57Z" stroke="#B8E4D7"/>
<path d="M311.747 137.124C311.747 139.125 310.125 140.747 308.124 140.747C306.122 140.747 304.5 139.125 304.5 137.124C304.5 135.122 306.122 133.5 308.124 133.5C310.125 133.5 311.747 135.122 311.747 137.124Z" stroke="#B8E4D7"/>
<path d="M114.784 101.692L120.504 105.062" stroke="#BDBDBD" stroke-linecap="round"/>
<path d="M119.062 100.586L115.692 106.306" stroke="#BDBDBD" stroke-linecap="round"/>
<path d="M148 42.1243H154.639" stroke="#8FBCFF" stroke-linecap="round"/>
<path d="M151.124 39L151.124 45.6392" stroke="#8FBCFF" stroke-linecap="round"/>
<path d="M289 84.1243H295.639" stroke="#8FBCFF" stroke-linecap="round"/>
<path d="M292.124 81L292.124 87.6392" stroke="#8FBCFF" stroke-linecap="round"/>
<path fill-rule="evenodd" clip-rule="evenodd" d="M270.237 32.4244C269.68 32.9355 268.939 33.2474 268.124 33.2474C266.399 33.2474 265 31.8489 265 30.1237C265 28.3985 266.399 27 268.124 27C269.849 27 271.247 28.3985 271.247 30.1237C271.247 30.7584 271.058 31.3489 270.733 31.8418C270.589 31.841 270.446 31.9018 270.347 32.0204C270.249 32.137 270.213 32.2852 270.237 32.4244ZM270.92 33.1543C270.185 33.8329 269.203 34.2474 268.124 34.2474C265.846 34.2474 264 32.4012 264 30.1237C264 27.8462 265.846 26 268.124 26C270.401 26 272.247 27.8462 272.247 30.1237C272.247 30.9618 271.997 31.7416 271.568 32.3924L273.993 34.427C274.204 34.6045 274.232 34.9199 274.054 35.1314C273.877 35.343 273.561 35.3705 273.35 35.193L270.92 33.1543Z" fill="#FF0606" fill-opacity="0.3"/>
<path fill-rule="evenodd" clip-rule="evenodd" d="M126.237 146.424C125.68 146.935 124.939 147.247 124.124 147.247C122.399 147.247 121 145.849 121 144.124C121 142.399 122.399 141 124.124 141C125.849 141 127.247 142.399 127.247 144.124C127.247 144.758 127.058 145.349 126.733 145.842C126.589 145.841 126.446 145.902 126.347 146.02C126.249 146.137 126.213 146.285 126.237 146.424ZM126.92 147.154C126.185 147.833 125.203 148.247 124.124 148.247C121.846 148.247 120 146.401 120 144.124C120 141.846 121.846 140 124.124 140C126.401 140 128.247 141.846 128.247 144.124C128.247 144.962 127.997 145.742 127.568 146.392L129.993 148.427C130.204 148.605 130.232 148.92 130.054 149.131C129.877 149.343 129.561 149.371 129.35 149.193L126.92 147.154Z" fill="#FF0606" fill-opacity="0.3"/>
<circle cx="272.5" cy="150.5" r="16.5" fill="white" stroke="#383838" stroke-width="2"/>
<path d="M281.751 144.236L270.773 156.338L264.16 151.153C263.853 150.912 263.402 150.962 263.157 151.263C262.91 151.565 262.96 152.005 263.268 152.247L270.411 157.847C270.542 157.95 270.7 158 270.857 158C271.054 158 271.251 157.92 271.391 157.765L282.819 145.165C283.082 144.877 283.055 144.434 282.76 144.177C282.464 143.92 282.014 143.946 281.751 144.236Z" fill="#B3D8FE"/>
<path d="M226 20V20.8571C226 23.6855 223.75 26 221 26C223.75 26 226 28.314 226 31.1429V32V31.1429C226 28.314 228.25 26 231 26C228.25 26 226 23.6855 226 20.8571V20Z" fill="#F4C167"/>
<path d="M91 74V74.8571C91 77.6855 88.7498 80 86 80C88.7498 80 91 82.314 91 85.1429V86V85.1429C91 82.314 93.2502 80 96 80C93.2502 80 91 77.6855 91 74.8571V74Z" fill="#F4C167"/>
</svg>
