<?xml version="1.0" encoding="iso-8859-1"?>
<!-- Generator: Adobe Illustrator 21.0.0, SVG Export Plug-In . SVG Version: 6.00 Build 0)  -->
<svg version="1.1" id="Capa_1" xmlns="http://www.w3.org/2000/svg" xmlns:xlink="http://www.w3.org/1999/xlink" x="0px" y="0px"
	 viewBox="0 0 511.999 511.999" style="enable-background:new 0 0 511.999 511.999;" xml:space="preserve">
<path style="fill:#EDEBED;" d="M360.21,440.371H87.661c-8.854,0-16.032-7.178-16.032-16.032V71.629
	c0-8.854,7.178-16.032,16.032-16.032H360.21c8.854,0,16.032,7.178,16.032,16.032v352.71
	C376.242,433.193,369.064,440.371,360.21,440.371z"/>
<path style="fill:#DBD9DC;" d="M143.774,416.323c-26.563,0-48.097-21.534-48.097-48.097V55.597h-8.016
	c-8.854,0-16.032,7.178-16.032,16.032v352.71c0,8.854,7.178,16.032,16.032,16.032H360.21c8.854,0,16.032-7.178,16.032-16.032v-8.016
	H143.774z"/>
<path style="fill:#C9C6CA;" d="M296.081,39.565h-32.906c-3.895,0-7.061-2.837-7.864-6.648C252.249,18.398,239.365,7.5,223.935,7.5
	s-28.313,10.898-31.375,25.416c-0.803,3.811-3.969,6.648-7.864,6.648H151.79c-4.427,0-8.016,3.589-8.016,8.016v16.032
	c0,4.427,3.589,8.016,8.016,8.016h144.29c4.427,0,8.016-3.589,8.016-8.016V47.581C304.096,43.153,300.508,39.565,296.081,39.565z"/>
<path style="fill:#FFE17D;" d="M352.194,504.5L352.194,504.5c-48.699,0-88.177-39.478-88.177-88.177v-48.097
	c0-13.282,10.767-24.048,24.048-24.048h128.258c13.282,0,24.048,10.767,24.048,24.048v48.097
	C440.371,465.022,400.893,504.5,352.194,504.5z"/>
<path style="fill:#6F6571;" d="M352.194,239.968c-35.417,0-64.129,28.712-64.129,64.129v40.081h32.065v-40.081
	c0-17.709,14.356-32.065,32.065-32.065c17.709,0,32.065,14.356,32.065,32.065v40.081h32.065v-40.081
	C416.323,268.679,387.611,239.968,352.194,239.968z"/>
<path style="fill:#FFD164;" d="M376.242,496.484c-48.7,0-88.177-39.478-88.177-88.177v-64.129
	c-13.282,0-24.048,10.767-24.048,24.048v48.097c0,48.699,39.478,88.177,88.177,88.177c14.255,0,27.675-3.461,39.591-9.468
	C386.732,495.933,381.555,496.484,376.242,496.484z"/>
<g>
	<rect x="288.06" y="320.13" style="fill:#5D5360;" width="32.06" height="24.05"/>
	<rect x="384.26" y="320.13" style="fill:#5D5360;" width="32.06" height="24.05"/>
	<circle style="fill:#5D5360;" cx="352.19" cy="408.31" r="16.03"/>
</g>
<path d="M423.823,337.585v-33.489c0-39.496-32.133-71.629-71.629-71.629s-71.629,32.133-71.629,71.629v33.489
	c-13.786,3.375-24.048,15.829-24.048,30.64c0,4.142,3.358,7.5,7.5,7.5s7.5-3.358,7.5-7.5c0-9.125,7.423-16.548,16.548-16.548
	h128.258c9.125,0,16.548,7.423,16.548,16.548v48.097c0,44.485-36.192,80.677-80.678,80.677c-44.485,0-80.677-36.192-80.677-80.677
	V400.29c0-4.142-3.358-7.5-7.5-7.5s-7.5,3.358-7.5,7.5v16.032c0,52.757,42.921,95.677,95.678,95.677s95.677-42.92,95.677-95.677
	v-48.097C447.871,353.414,437.609,340.961,423.823,337.585z M352.194,247.468c31.225,0,56.629,25.404,56.629,56.629v32.581h-17.064
	v-32.581c0-21.816-17.749-39.564-39.565-39.564s-39.564,17.749-39.564,39.564v32.581h-17.064v-32.581
	C295.564,272.872,320.967,247.468,352.194,247.468z M376.758,336.677h-49.129v-32.581c0-13.545,11.02-24.564,24.564-24.564
	c13.545,0,24.565,11.02,24.565,24.564V336.677z"/>
<path d="M352.193,455.887c4.142,0,7.5-3.358,7.5-7.5v-17.781c9.308-3.139,16.032-11.946,16.032-22.3
	c0-12.976-10.557-23.532-23.532-23.532s-23.532,10.557-23.532,23.532c0,10.354,6.724,19.16,16.032,22.3v17.781
	C344.693,452.529,348.051,455.887,352.193,455.887z M352.193,399.774c4.705,0,8.532,3.828,8.532,8.532s-3.828,8.532-8.532,8.532
	s-8.532-3.828-8.532-8.532S347.489,399.774,352.193,399.774z"/>
<path d="M231.952,432.871H87.661c-4.705,0-8.532-3.828-8.532-8.532V71.629c0-4.705,3.828-8.532,8.532-8.532h48.613v0.516
	c0,8.556,6.96,15.516,15.516,15.516h144.29c8.556,0,15.516-6.96,15.516-15.516v-0.516h48.613c4.705,0,8.532,3.828,8.532,8.532
	v140.282c0,4.142,3.358,7.5,7.5,7.5s7.5-3.358,7.5-7.5V71.629c0-12.976-10.557-23.532-23.532-23.532h-48.613v-0.516
	c0-8.556-6.96-15.516-15.516-15.516h-33.293C259.273,13.822,243.188,0,223.936,0s-35.337,13.822-38.852,32.064h-33.293
	c-8.556,0-15.516,6.96-15.516,15.516v0.516H87.661c-12.976,0-23.532,10.557-23.532,23.532v352.71
	c0,12.976,10.557,23.532,23.532,23.532h144.291c4.142,0,7.5-3.358,7.5-7.5S236.094,432.871,231.952,432.871z M151.791,47.064h40.081
	c4.142,0,7.5-3.358,7.5-7.5c0-13.545,11.02-24.564,24.564-24.564S248.5,26.02,248.5,39.564c0,4.142,3.358,7.5,7.5,7.5h40.081
	c0.285,0,0.516,0.231,0.516,0.516v16.032c0,0.285-0.231,0.516-0.516,0.516h-144.29c-0.285,0-0.516-0.231-0.516-0.516V47.581
	C151.274,47.296,151.506,47.064,151.791,47.064z"/>
<path d="M224.016,47.064c4.142,0,7.5-3.358,7.5-7.5s-3.358-7.5-7.5-7.5h-0.08c-4.142,0-7.46,3.358-7.46,7.5
	S219.874,47.064,224.016,47.064z"/>
<path d="M327.629,155.798c0-4.142-3.358-7.5-7.5-7.5h-104.21c-4.142,0-7.5,3.358-7.5,7.5s3.358,7.5,7.5,7.5h104.209
	C324.271,163.298,327.629,159.94,327.629,155.798z"/>
<path d="M189.158,130.455c-2.929-2.929-7.678-2.929-10.606,0l-26.761,26.761l-14.737-14.737c-2.929-2.929-7.678-2.929-10.606,0
	c-2.929,2.929-2.929,7.678,0,10.606l20.041,20.041c1.464,1.464,3.384,2.197,5.303,2.197s3.839-0.732,5.303-2.197l32.064-32.064
	C192.087,138.133,192.087,133.384,189.158,130.455z"/>
<path d="M215.919,244.492c-4.142,0-7.5,3.358-7.5,7.5s3.358,7.5,7.5,7.5h48.097c4.142,0,7.5-3.358,7.5-7.5s-3.358-7.5-7.5-7.5
	H215.919z"/>
<path d="M189.158,226.648c-2.929-2.929-7.678-2.929-10.606,0l-26.761,26.761l-14.737-14.737c-2.929-2.929-7.678-2.929-10.606,0
	c-2.929,2.929-2.929,7.678,0,10.606l20.041,20.041c1.464,1.464,3.384,2.197,5.303,2.197s3.839-0.732,5.303-2.197l32.064-32.064
	C192.087,234.326,192.087,229.577,189.158,226.648z"/>
<path d="M231.952,340.686H215.92c-4.142,0-7.5,3.358-7.5,7.5s3.358,7.5,7.5,7.5h16.032c4.142,0,7.5-3.358,7.5-7.5
	S236.094,340.686,231.952,340.686z"/>
<path d="M178.552,322.842l-26.761,26.761l-14.737-14.737c-2.929-2.929-7.678-2.929-10.606,0c-2.929,2.929-2.929,7.678,0,10.606
	l20.041,20.04c1.464,1.464,3.384,2.197,5.303,2.197s3.839-0.732,5.303-2.197l32.064-32.064c2.929-2.929,2.929-7.678,0-10.606
	C186.229,319.913,181.48,319.913,178.552,322.842z"/>
<g>
</g>
<g>
</g>
<g>
</g>
<g>
</g>
<g>
</g>
<g>
</g>
<g>
</g>
<g>
</g>
<g>
</g>
<g>
</g>
<g>
</g>
<g>
</g>
<g>
</g>
<g>
</g>
<g>
</g>
</svg>
