<?xml version="1.0" encoding="utf-8"?>
<!-- Generator: Adobe Illustrator 22.0.0, SVG Export Plug-In . SVG Version: 6.00 Build 0)  -->
<svg version="1.1" id="Capa_1" xmlns="http://www.w3.org/2000/svg" xmlns:xlink="http://www.w3.org/1999/xlink" x="0px" y="0px"
	 viewBox="0 0 512 512" style="enable-background:new 0 0 512 512;" xml:space="preserve">
<style type="text/css">
	.st0{fill:#16B7BD;}
	.st1{fill:none;}
	.st2{fill:#FFFFFF;}
</style>
<g>
	<path class="st0" d="M253.3,473.1c-1.9-0.4-46.4-10.3-91.5-34.8c-62-33.7-94.8-79-94.8-131V102.8c0-7.1,5.7-12.8,12.7-12.8
		c67.6,0,107.9-12.7,132-23.4c24.9-11.1,33.5-22.3,34.3-23.1c5.5-6.9,15.7-6.3,20.3,1c0.8,1,11,11.8,33.7,22.5
		C322.1,77.5,365.3,90,432.3,90c7,0,12.7,5.7,12.7,12.8v204.4c0,52-32.8,97.3-94.8,131c-45.2,24.5-89.7,34.4-91.5,34.8
		C256.9,473.5,255.1,473.5,253.3,473.1z"/>
	<path class="st1" d="M243.3,307.2c0,7.1,5.7,12.8,12.7,12.8v-25.6C249,294.5,243.3,300.2,243.3,307.2z"/>
	<path class="st1" d="M268.7,307.2c0-7.1-5.7-12.8-12.7-12.8V320C263,320,268.7,314.3,268.7,307.2z"/>
</g>
<path class="st2" d="M367.3,324.9c1.8,8.7-0.4,17.6-6,24.5c-5.6,6.8-13.8,10.8-22.6,10.8H150.6c-8.8,0-17.1-3.9-22.6-10.8
	c-5.6-6.9-7.8-15.8-6-24.5c5.8-27.8,21.1-53,43.1-71.1c12-9.9,25.7-17.4,40.4-22.2c-16-12-26.3-31-26.3-52.4
	c0-36.1,29.4-65.5,65.5-65.5c12.8,0,25.8,4,36.7,11.3c4.4,3,5.6,8.9,2.6,13.4c-3,4.4-8.9,5.6-13.4,2.6c-7.7-5.2-16.9-8-25.9-8
	c-25.5,0-46.2,20.7-46.2,46.2c0,24.7,19.5,45,44,46.2c0.8,0,1.5,0,2.3,0c0.8,0,1.5,0,2.3,0c12.1-0.6,23.2-5.8,31.6-14.7
	c3.6-3.9,9.7-4.1,13.6-0.5c3.9,3.6,4.1,9.7,0.5,13.6c-2.7,2.9-5.6,5.5-8.8,7.9c26.2,8.6,49.1,25.7,64.9,49.3
	c3,4.4,1.8,10.4-2.6,13.4c-4.4,3-10.4,1.8-13.4-2.6c-19.3-28.8-51.3-46.3-85.8-47c-0.8,0-1.5,0-2.3,0c-0.8,0-1.6,0-2.5-0.1
	c-48.9,1.1-91.3,36.2-101.3,84.3c-0.6,3,0.1,6.1,2,8.4c1.1,1.4,3.6,3.7,7.7,3.7h188.1c4.1,0,6.6-2.3,7.7-3.7c1.9-2.4,2.7-5.4,2-8.4
	c-1.1-5.2,2.3-10.3,7.5-11.4C361.2,316.3,366.3,319.7,367.3,324.9z M368,156v19.3c0,10.6-8.6,19.3-19.3,19.3h-28.9
	c-5.3,0-9.6-4.3-9.6-9.6v-9.6h-15.4v9.6c0,5.3-4.3,9.6-9.6,9.6s-9.6-4.3-9.6-9.6v-9.6h-14.4v14.4c0,5.3-4.3,9.6-9.6,9.6
	c-5.3,0-9.6-4.3-9.6-9.6v-24.1c0-5.3,4.3-9.6,9.6-9.6h58.7v-9.6c0-5.3,4.3-9.6,9.6-9.6h28.9C359.3,136.7,368,145.4,368,156z
	 M348.7,156h-19.3v19.3h19.3V156z"/>
</svg>
