<svg id="Layer_1" data-name="Layer 1" xmlns="http://www.w3.org/2000/svg" viewBox="0 0 50 50"><defs><style>.cls-1{fill:#4CAF50;}</style></defs><title>Approve-circle</title><path class="cls-1" d="M50.4,25.3a25,25,0,1,0,25,25A25,25,0,0,0,50.4,25.3Zm0,46.09A21.09,21.09,0,1,1,71.49,50.3,21.09,21.09,0,0,1,50.4,71.39Z" transform="translate(-25.4 -25.3)"/><g id="done-all"><path class="cls-1" d="M57.71,45.68,56,44l-7.64,7.64,1.7,1.7ZM62.8,44,50.07,56.84,45,51.75l-1.7,1.7,6.79,6.79L64.62,45.68ZM36.36,53.45l6.79,6.79,1.7-1.7-6.79-6.79Z" transform="translate(-25.4 -25.3)"/></g></svg>