<svg id="Layer_1" data-name="Layer 1" xmlns="http://www.w3.org/2000/svg" viewBox="0 0 50 50">
<title>inprogress-5</title>
<path fill="#ff691c" d="M65.91,63.61a21.33,21.33,0,0,0,4.4-8.94l3.65.81A25.07,25.07,0,0,1,68.79,66ZM64.72,30.17A25.14,25.14,0,0,0,54,25.41l-.67,3.67a21.39,21.39,0,0,1,9.11,4ZM25.46,42.76,29,43.85a21.41,21.41,0,0,1,5.06-8.58L31.4,32.68A25.15,25.15,0,0,0,25.46,42.76ZM32.76,68.7a25.2,25.2,0,0,0,10.32,5.55l1-3.6a21.45,21.45,0,0,1-8.79-4.72Zm-5.19-6.46,3.26-1.82a21.26,21.26,0,0,1-2.7-9.58L24.39,51A25,25,0,0,0,27.57,62.24ZM38.94,31.06a21.11,21.11,0,0,1,9.7-2.33V25a25.17,25.17,0,0,0-11.4,2.74ZM74.39,47.22a25,25,0,0,0-4-11l-3.11,2.06a21.26,21.26,0,0,1,3.42,9.35ZM51.35,75a25.12,25.12,0,0,0,11.16-3.59l-1.95-3.18a21.37,21.37,0,0,1-9.49,3.05Z" transform="translate(-24.39 -25)"/>


<circle cx="25" cy="25" r="7" fill="#ff691c"/></svg>