<svg id="Layer_1" data-name="Layer 1" xmlns="http://www.w3.org/2000/svg" viewBox="0 0 50 50"><defs><style>.cls-1{fill:#ce3a00;}.cls-2{stroke:#ce3a00;stroke-miterlimit:10;stroke-width:2px;}</style></defs><title>cancel-circle</title><path class="cls-1" d="M50.41,25.13a25,25,0,1,0,25,25A25,25,0,0,0,50.41,25.13Zm0,46.09A21.09,21.09,0,1,1,71.5,50.13,21.09,21.09,0,0,1,50.41,71.23Z" transform="translate(-25.41 -25.13)"/><polygon class="cls-2" points="34.07 16.75 33.25 15.93 25 24.18 16.75 15.93 15.93 16.75 24.18 25 15.93 33.25 16.75 34.07 25 25.82 33.25 34.07 34.07 33.25 25.82 25 34.07 16.75"/></svg>