<svg id="Layer_1" data-name="Layer 1" xmlns="http://www.w3.org/2000/svg" viewBox="0 0 50 50"><defs><style>.cls-1{fill:#00ce4a;}</style></defs><title>Complete-circle</title><path class="cls-1" d="M50.4,25.37a25,25,0,1,0,25,25A25,25,0,0,0,50.4,25.37Zm0,46.09A21.09,21.09,0,1,1,71.49,50.37,21.09,21.09,0,0,1,50.4,71.47Z" transform="translate(-25.4 -25.37)"/><path class="cls-1" d="M46.58,60.72a2.15,2.15,0,0,1-1.53-.63l-7.63-7.63a2.16,2.16,0,0,1,3.05-3.05l6.1,6.1L60.31,41.78a2.16,2.16,0,0,1,3.05,3.05L48.11,60.09A2.15,2.15,0,0,1,46.58,60.72Z" transform="translate(-25.4 -25.37)"/></svg>