<svg id="Layer_1" data-name="Layer 1" xmlns="http://www.w3.org/2000/svg" viewBox="0 0 47.04 50"><title>New Start</title><path d="M49.92,49.66a2.14,2.14,0,0,0,2.14-2.13V28.27a2.14,2.14,0,0,0-4.28,0V47.53A2.14,2.14,0,0,0,49.92,49.66Z" transform="translate(-26.41 -24)" fill="#e4ad40"/><path d="M60.61,32v2.52a19.24,19.24,0,1,1-21.38,0V32a21.38,21.38,0,1,0,21.38,0Z" transform="translate(-26.41 -24)" fill="#5ecc66"/><path d="M60,29.23a1.07,1.07,0,0,0-1.53,1v4.87A1.07,1.07,0,0,0,59,36a17.1,17.1,0,1,1-18.11,0,1.07,1.07,0,0,0,.5-.91V30.19a1.07,1.07,0,0,0-1.53-1,23.52,23.52,0,1,0,20.16,0ZM49.92,71.86A21.38,21.38,0,0,1,39.23,32v2.52a19.24,19.24,0,1,0,21.38,0V32a21.38,21.38,0,0,1-10.69,39.9Z" transform="translate(-26.41 -24)" fill="#314e55"/><path d="M49.92,51.79a4.28,4.28,0,0,0,4.28-4.27V28.27a4.28,4.28,0,0,0-8.55,0V47.53A4.28,4.28,0,0,0,49.92,51.79ZM47.79,28.27a2.14,2.14,0,0,1,4.28,0V47.53a2.14,2.14,0,0,1-4.28,0Z" transform="translate(-26.41 -24)" fill="#314e55"/></svg>