<svg id="Layer_1" data-name="Layer 1" xmlns="http://www.w3.org/2000/svg" viewBox="0 0 50 50"><defs><style>.cls-1{fill:#d2d2d2;}</style></defs><title>Not Available-circle</title><path class="cls-1" d="M50.4,24.52a25,25,0,1,0,25,25A25,25,0,0,0,50.4,24.52Zm0,46.09A21.09,21.09,0,1,1,71.49,49.52,21.09,21.09,0,0,1,50.4,70.62Z" transform="translate(-25.4 -24.52)"/><path class="cls-1" d="M60.79,47H40c-1.76,0-3.2,1.15-3.2,2.52S38.24,52,40,52H60.79c1.76,0,3.2-1.15,3.2-2.52S62.55,47,60.79,47Z" transform="translate(-25.4 -24.52)"/></svg>