<svg id="Layer_1" data-name="Layer 1" xmlns="http://www.w3.org/2000/svg" viewBox="0 0 50 50"><defs><style>.cls-1{fill:#f7fc2b;}</style></defs><title>Overdue-circle</title><path class="cls-1" d="M50.41,57.77a2,2,0,0,0,2-1.82l1.34-16a3.33,3.33,0,1,0-6.64,0l1.34,16A2,2,0,0,0,50.41,57.77Z" transform="translate(-25.41 -24.79)"/><path class="cls-1" d="M50.41,59a2.16,2.16,0,1,0,2.16,2.16A2.16,2.16,0,0,0,50.41,59Z" transform="translate(-25.41 -24.79)"/><path class="cls-1" d="M50.41,24.79a25,25,0,1,0,25,25A25,25,0,0,0,50.41,24.79Zm0,46.09A21.09,21.09,0,1,1,71.5,49.79,21.09,21.09,0,0,1,50.41,70.88Z" transform="translate(-25.41 -24.79)"/></svg>