<svg id="Layer_1" data-name="Layer 1" xmlns="http://www.w3.org/2000/svg" viewBox="0 0 50 50"><defs><style>.cls-1{fill:#f2a825;}</style></defs><title>Pending-circle</title><path class="cls-1" d="M50.4,24.45a25,25,0,1,0,25,25A25,25,0,0,0,50.4,24.45Zm0,46.09A21.09,21.09,0,1,1,71.49,49.45,21.09,21.09,0,0,1,50.4,70.54Z" transform="translate(-25.4 -24.45)"/><path class="cls-1" d="M46.42,39.3a2.21,2.21,0,0,0-2.21,2.21V57.39a2.21,2.21,0,1,0,4.42,0V41.5A2.21,2.21,0,0,0,46.42,39.3Z" transform="translate(-25.4 -24.45)"/><path class="cls-1" d="M54.37,39.3a2.21,2.21,0,0,0-2.21,2.21V57.39a2.21,2.21,0,0,0,4.42,0V41.5A2.21,2.21,0,0,0,54.37,39.3Z" transform="translate(-25.4 -24.45)"/></svg>